<svg xmlns="http://www.w3.org/2000/svg" xmlns:xlink="http://www.w3.org/1999/xlink" style="display: none;">

    <symbol id="logo" viewBox="0 0 111.6 21.2">
        <g>
            <g>
                <path style="color: currentColor;" d="M14.4,16.1h-3V8.4L7.9,14H7.6L4.2,8.4v7.7h-3V2.8h3l3.6,5.9l3.6-5.9h3V16.1z"/>
                <path style="color: currentColor;" d="M19.9,9.5c0-3.9,2.9-6.9,6.9-6.9c2.4,0,4.5,1.2,5.7,3.1l-2.6,1.5c-0.6-1-1.7-1.6-3.1-1.6
                    c-2.3,0-3.9,1.6-3.9,3.9s1.5,3.9,3.9,3.9c1.3,0,2.5-0.6,3.1-1.6l2.6,1.5c-1.1,1.9-3.3,3.1-5.7,3.1C22.8,16.4,19.9,13.4,19.9,9.5z"
                    />
                <path style="color: currentColor;" d="M50.6,9.8c0,4-2.8,6.5-6.5,6.5c-4.2,0-7.2-3.1-7.2-6.9c0-3.8,3-6.9,6.9-6.9c2.5,0,4.7,1.2,5.8,3L47,7.1
                    c-0.5-0.9-1.7-1.6-3.2-1.6c-2.2,0-3.9,1.6-3.9,4c0,2.3,1.6,3.9,4.2,3.9c1.8,0,2.9-0.8,3.4-2h-3.5V8.7h6.6V9.8z"/>
            </g>
        </g>
        <g>
            <g>
                <path style="color: currentColor;" d="M69.1,2.3v5H68v-2h-1.6v2h-1.2v-5h1.2v1.9H68V2.3H69.1z"/>
                <path style="color: currentColor;" d="M73.3,3.8v3.6h-1.1V7c-0.2,0.3-0.6,0.4-1,0.4c-0.7,0-1.3-0.5-1.3-1.5V3.8H71v2c0,0.4,0.3,0.7,0.6,0.7
                    c0.4,0,0.7-0.2,0.7-0.7v-2H73.3z"/>
                <path style="color: currentColor;" d="M79.5,5.2v2.2h-1.1V5.3c0-0.4-0.2-0.6-0.5-0.6c-0.4,0-0.6,0.3-0.6,0.7v2h-1.1V5.3c0-0.4-0.2-0.6-0.5-0.6
                    c-0.4,0-0.6,0.3-0.6,0.7v2h-1.1V3.8h1.1v0.3c0.2-0.2,0.5-0.4,1-0.4c0.4,0,0.7,0.2,0.9,0.5c0.2-0.3,0.5-0.5,1-0.5
                    C79,3.7,79.5,4.3,79.5,5.2z"/>
                <path style="color: currentColor;" d="M83.9,3.8v3.6h-1.1V7c-0.2,0.3-0.6,0.4-1.1,0.4c-0.9,0-1.7-0.8-1.7-1.9c0-1.1,0.8-1.9,1.7-1.9
                    c0.5,0,0.8,0.2,1.1,0.4V3.8H83.9z M82.9,5.6c0-0.5-0.4-0.9-0.9-0.9S81.2,5,81.2,5.6s0.4,0.9,0.9,0.9S82.9,6.1,82.9,5.6z"/>
                <path style="color: currentColor;" d="M88.2,5.2v2.2h-1.1v-2c0-0.4-0.3-0.7-0.6-0.7c-0.4,0-0.7,0.2-0.7,0.7v2h-1.1V3.8h1.1v0.3
                    c0.2-0.3,0.6-0.4,1-0.4C87.6,3.7,88.2,4.2,88.2,5.2z"/>
                <path style="color: currentColor;" d="M68.4,14.9V16h-3.2v-5h3.1v1.1h-2v0.8h1.8V14h-1.8v0.9H68.4z"/>
                <path style="color: currentColor;" d="M72.5,13.8V16h-1.1v-2c0-0.4-0.3-0.7-0.6-0.7c-0.4,0-0.7,0.2-0.7,0.7v2H69v-3.6h1.1v0.3
                    c0.2-0.3,0.6-0.4,1-0.4C71.8,12.3,72.5,12.8,72.5,13.8z"/>
                <path style="color: currentColor;" d="M76.9,12.4v3.4c0,1.2-0.9,1.7-1.9,1.7c-0.7,0-1.4-0.3-1.7-0.9l0.9-0.5c0.1,0.3,0.3,0.5,0.8,0.5
                    c0.5,0,0.8-0.3,0.8-0.8v-0.3c-0.2,0.3-0.6,0.5-1,0.5c-1,0-1.8-0.8-1.8-1.8c0-1,0.7-1.8,1.8-1.8c0.5,0,0.8,0.2,1,0.5v-0.4H76.9z
                    M75.8,14.1c0-0.5-0.4-0.8-0.9-0.8c-0.5,0-0.9,0.3-0.9,0.8c0,0.5,0.4,0.8,0.9,0.8C75.5,15,75.8,14.6,75.8,14.1z"/>
                <path style="color: currentColor;" d="M81.4,12.4V16h-1.1v-0.3c-0.2,0.3-0.6,0.4-1.1,0.4c-0.9,0-1.7-0.8-1.7-1.9c0-1.1,0.8-1.9,1.7-1.9
                    c0.5,0,0.8,0.2,1.1,0.4v-0.3H81.4z M80.3,14.2c0-0.5-0.4-0.9-0.9-0.9s-0.9,0.3-0.9,0.9s0.4,0.9,0.9,0.9S80.3,14.7,80.3,14.2z"/>
                <path style="color: currentColor;" d="M85.8,12.4v3.4c0,1.2-0.9,1.7-1.9,1.7c-0.7,0-1.4-0.3-1.7-0.9l0.9-0.5c0.1,0.3,0.3,0.5,0.8,0.5
                    c0.5,0,0.8-0.3,0.8-0.8v-0.3c-0.2,0.3-0.6,0.5-1,0.5c-1,0-1.8-0.8-1.8-1.8c0-1,0.7-1.8,1.8-1.8c0.5,0,0.8,0.2,1,0.5v-0.4H85.8z
                    M84.8,14.1c0-0.5-0.4-0.8-0.9-0.8c-0.5,0-0.9,0.3-0.9,0.8c0,0.5,0.4,0.8,0.9,0.8C84.4,15,84.8,14.6,84.8,14.1z"/>
                <path style="color: currentColor;" d="M88.5,15.1c0.3,0,0.5-0.1,0.7-0.3l0.9,0.5c-0.4,0.5-0.9,0.7-1.6,0.7c-1.2,0-2-0.8-2-1.9
                    c0-1.1,0.8-1.9,1.9-1.9c1,0,1.8,0.8,1.8,1.9c0,0.2,0,0.3,0,0.4h-2.6C87.7,15,88.1,15.1,88.5,15.1z M89.1,13.8
                    c-0.1-0.4-0.4-0.6-0.8-0.6c-0.4,0-0.7,0.2-0.8,0.6H89.1z"/>
                <path style="color: currentColor;" d="M96.2,13.8V16h-1.1v-2.1c0-0.4-0.2-0.6-0.5-0.6c-0.4,0-0.6,0.3-0.6,0.7v2h-1.1v-2.1c0-0.4-0.2-0.6-0.5-0.6
                    c-0.4,0-0.6,0.3-0.6,0.7v2h-1.1v-3.6h1.1v0.3c0.2-0.2,0.5-0.4,1-0.4c0.4,0,0.7,0.2,0.9,0.5c0.2-0.3,0.5-0.5,1-0.5
                    C95.6,12.3,96.2,12.9,96.2,13.8z"/>
                <path style="color: currentColor;" d="M98.7,15.1c0.3,0,0.5-0.1,0.7-0.3l0.9,0.5c-0.4,0.5-0.9,0.7-1.6,0.7c-1.2,0-2-0.8-2-1.9
                    c0-1.1,0.8-1.9,1.9-1.9c1,0,1.8,0.8,1.8,1.9c0,0.2,0,0.3,0,0.4h-2.6C98,15,98.4,15.1,98.7,15.1z M99.4,13.8
                    c-0.1-0.4-0.4-0.6-0.8-0.6c-0.4,0-0.7,0.2-0.8,0.6H99.4z"/>
                <path style="color: currentColor;" d="M104.5,13.8V16h-1.1v-2c0-0.4-0.3-0.7-0.6-0.7c-0.4,0-0.7,0.2-0.7,0.7v2h-1.1v-3.6h1.1v0.3
                    c0.2-0.3,0.6-0.4,1-0.4C103.9,12.3,104.5,12.8,104.5,13.8z"/>
                <path style="color: currentColor;" d="M106.6,13.4v1.3c0,0.3,0.3,0.3,0.7,0.3v1c-1.4,0.1-1.8-0.3-1.8-1.3v-1.3H105v-1h0.6v-0.7l1.1-0.3v1h0.7v1
                    H106.6z"/>
            </g>
        </g>
        <rect x="57.1" y="0.2" style="color: currentColor;" width="0.2" height="18.1"/>
        <g>
            <path style="color: currentColor;" d="M111.2,14.8c0.1,0.1,0.2,0.1,0.3,0.3c0.1,0.1,0.1,0.2,0.1,0.4s0,0.2-0.1,0.4c-0.1,0.1-0.1,0.2-0.3,0.3
                s-0.2,0.1-0.4,0.1s-0.2,0-0.4-0.1c-0.1-0.1-0.2-0.1-0.3-0.3c-0.1-0.1-0.1-0.2-0.1-0.4c0-0.1,0-0.2,0.1-0.4c0.1-0.1,0.1-0.2,0.3-0.3
                c0.1-0.1,0.2-0.1,0.4-0.1C110.9,14.7,111.1,14.8,111.2,14.8z M111.1,16c0.1-0.1,0.2-0.1,0.2-0.2c0.1-0.1,0.1-0.2,0.1-0.3
                s0-0.2-0.1-0.3c-0.1-0.1-0.1-0.2-0.2-0.2c-0.1-0.1-0.2-0.1-0.3-0.1c-0.1,0-0.2,0-0.3,0.1c-0.1,0.1-0.2,0.1-0.2,0.2
                c-0.1,0.1-0.1,0.2-0.1,0.3s0,0.2,0.1,0.3c0.1,0.1,0.1,0.2,0.2,0.2c0.1,0.1,0.2,0.1,0.3,0.1S111,16,111.1,16z M111.1,15.4
                c0,0-0.1,0.1-0.1,0.1l0.2,0.3h-0.1l-0.2-0.3c0,0,0,0,0,0h-0.2v0.3h-0.1V15h0.3c0.1,0,0.2,0,0.2,0.1s0.1,0.1,0.1,0.2
                C111.2,15.4,111.2,15.4,111.1,15.4z M111,15.4c0,0,0.1-0.1,0.1-0.1c0-0.1,0-0.1-0.1-0.1s-0.1,0-0.2,0h-0.2v0.4h0.2
                C110.9,15.5,111,15.5,111,15.4z"/>
        </g>
    </symbol>

    <symbol id="icon-arrow-left" viewBox="0 0 37 37">
        <g transform="rotate(180 18.5 18.5)" style="fill:#fff;stroke:#707070">
            <circle cx="18.5" cy="18.5" r="18.5" style="stroke:none"/>
            <circle cx="18.5" cy="18.5" r="18" style="fill:none"/>
        </g>
        <path d="M21 13l-6 6 6 6" style="stroke:currentColor;stroke-linecap:round;stroke-linejoin:round;fill:none"/>
    </symbol>

    <symbol id="icon-arrow-right" viewBox="0 0 37 37">
        <g transform="rotate(180 18.5 18.5)" style="fill:#fff;stroke:#707070">
            <circle cx="18.5" cy="18.5" r="18.5" style="stroke:none"/>
            <circle cx="18.5" cy="18.5" r="18" style="fill:none"/>
        </g>
        <path d="M16 24l6-6-6-6" style="stroke:currentColor;stroke-linecap:round;stroke-linejoin:round;fill:none"/>
    </symbol>

    <symbol id="icon-close" viewBox="0 0 24 24">
        <rect width="24" height="24" fill="none" rx="0" ry="0"/>
        <path fill-rule="evenodd" clip-rule="evenodd" d="M19.3345 3.77817C18.7487 3.19239 17.799 3.19239 17.2132 3.77817L11.5563 9.43503L5.89948 3.77817C5.31369 3.19239 4.36395 3.19239 3.77816 3.77817C3.19237 4.36396 3.19237 5.31371 3.77816 5.89949L9.43502 11.5563L3.77816 17.2132C3.19238 17.799 3.19237 18.7487 3.77816 19.3345C4.36395 19.9203 5.3137 19.9203 5.89948 19.3345L11.5563 13.6777L17.2132 19.3345C17.799 19.9203 18.7487 19.9203 19.3345 19.3345C19.9203 18.7487 19.9203 17.799 19.3345 17.2132L13.6777 11.5563L19.3345 5.89949C19.9203 5.31371 19.9203 4.36396 19.3345 3.77817Z" fill="#ffffff"/>
    </symbol>

    <symbol id="icon-play" viewBox="0 0 50 50">
        <circle class="a" cx="25" cy="25" r="23" style="fill:none;stroke:currentColor;"/>
        <path class="a" d="M20.765 16.074l14.074 9.382-14.074 9.383z" style="fill:none;stroke:currentColor;"/>
    </symbol>

    <symbol id="icon-loading-dots" viewBox="0 0 120 30">
        <circle cx="15" cy="15" r="15">
            <animate attributeName="r" from="5" to="5"
                    begin="0s" dur="0.8s"
                    values="15;9;15" calcMode="linear"
                    repeatCount="indefinite" />
            <animate attributeName="fill-opacity" from="0.5" to="0.5"
                    begin="0s" dur="0.8s"
                    values="1;.5;1" calcMode="linear"
                    repeatCount="indefinite" />
        </circle>
        <circle cx="60" cy="15" r="15" fill-opacity="0.3">
            <animate attributeName="r" from="9" to="9"
                    begin="0s" dur="0.8s"
                    values="9;15;9" calcMode="linear"
                    repeatCount="indefinite" />
            <animate attributeName="fill-opacity" from="1" to="1"
                    begin="0s" dur="0.8s"
                    values=".5;1;.5" calcMode="linear"
                    repeatCount="indefinite" />
        </circle>
        <circle cx="105" cy="15" r="15">
            <animate attributeName="r" from="15" to="15"
                    begin="0s" dur="0.8s"
                    values="15;9;15" calcMode="linear"
                    repeatCount="indefinite" />
            <animate attributeName="fill-opacity" from="2" to="2"
                    begin="0s" dur="0.8s"
                    values="1;.5;1" calcMode="linear"
                    repeatCount="indefinite" />
        </circle>
    </symbol>

    <symbol id="icon-instagram" viewBox="0 0 170 170">
        <g stroke="none" stroke-width="1">
            <path d="M122.406,0 L46.654,0 C20.929,0 0,20.93 0,46.655 L0,122.407 C0,148.133 20.929,169.062 46.654,169.062 L122.406,169.062 C148.133,169.062 169.062,148.132 169.062,122.407 L169.062,46.655 C169.063,20.93 148.133,0 122.406,0 Z M154.063,122.407 C154.063,139.862 139.862,154.062 122.407,154.062 L46.654,154.062 C29.2,154.063 15,139.862 15,122.407 L15,46.655 C15,29.201 29.2,15 46.654,15 L122.406,15 C139.861,15 154.062,29.201 154.062,46.655 L154.062,122.407 L154.063,122.407 Z"></path>
            <path d="M84.531,40.97 C60.51,40.97 40.968,60.512 40.968,84.533 C40.968,108.553 60.51,128.094 84.531,128.094 C108.552,128.094 128.094,108.553 128.094,84.533 C128.094,60.512 108.552,40.97 84.531,40.97 Z M84.531,113.093 C68.782,113.093 55.968,100.281 55.968,84.532 C55.968,68.782 68.781,55.969 84.531,55.969 C100.281,55.969 113.094,68.782 113.094,84.532 C113.094,100.281 100.28,113.093 84.531,113.093 Z"></path>
            <path d="M129.921,28.251 C127.031,28.251 124.192,29.421 122.151,31.471 C120.1,33.511 118.921,36.351 118.921,39.251 C118.921,42.142 120.101,44.981 122.151,47.031 C124.191,49.071 127.031,50.251 129.921,50.251 C132.821,50.251 135.651,49.071 137.701,47.031 C139.751,44.981 140.921,42.141 140.921,39.251 C140.921,36.351 139.751,33.511 137.701,31.471 C135.661,29.421 132.821,28.251 129.921,28.251 Z"></path>
        </g>
    </symbol>

    <symbol id="icon-facebook" viewBox="0 0 430 430">
        <g>
            <path d="M158.081,83.3c0,10.839,0,59.218,0,59.218h-43.385v72.412h43.385v215.183h89.122V214.936h59.805
                c0,0,5.601-34.721,8.316-72.685c-7.784,0-67.784,0-67.784,0s0-42.127,0-49.511c0-7.4,9.717-17.354,19.321-17.354
                c9.586,0,29.818,0,48.557,0c0-9.859,0-43.924,0-75.385c-25.016,0-53.476,0-66.021,0C155.878-0.004,158.081,72.48,158.081,83.3z"/>
        </g>
    </symbol>

    <symbol id="icon-twitter" viewBox="0 0 612 498">
        <g stroke="none" stroke-width="1">
            <path d="M612,59.258 C589.475,69.239 565.306,76.008 539.912,79.03 C565.841,63.503 585.689,38.875 595.096,9.619 C570.774,23.998 543.927,34.439 515.321,40.099 C492.414,15.662 459.831,0.441 423.691,0.441 C354.357,0.441 298.14,56.658 298.14,125.954 C298.14,135.782 299.249,145.381 301.391,154.56 C197.065,149.32 104.556,99.337 42.641,23.386 C31.818,41.896 25.661,63.464 25.661,86.487 C25.661,130.046 47.842,168.48 81.496,190.966 C60.921,190.278 41.57,184.618 24.629,175.21 L24.629,176.778 C24.629,237.584 67.92,288.332 125.322,299.882 C114.805,302.712 103.715,304.28 92.242,304.28 C84.135,304.28 76.295,303.477 68.608,301.947 C84.593,351.854 130.944,388.146 185.861,389.141 C142.914,422.795 88.762,442.796 29.945,442.796 C19.811,442.796 9.829,442.184 0.001,441.075 C55.568,476.756 121.537,497.56 192.439,497.56 C423.387,497.56 549.627,306.269 549.627,140.372 L549.206,124.119 C573.872,106.526 595.211,84.422 612,59.258 Z"></path>
        </g>
    </symbol>

    <symbol id="icon-arrow-right" viewBox="0 0 512 512">
        <path d="M506.134,241.843c-0.006-0.006-0.011-0.013-0.018-0.019l-104.504-104c-7.829-7.791-20.492-7.762-28.285,0.068
			c-7.792,7.829-7.762,20.492,0.067,28.284L443.558,236H20c-11.046,0-20,8.954-20,20c0,11.046,8.954,20,20,20h423.557
			l-70.162,69.824c-7.829,7.792-7.859,20.455-0.067,28.284c7.793,7.831,20.457,7.858,28.285,0.068l104.504-104
			c0.006-0.006,0.011-0.013,0.018-0.019C513.968,262.339,513.943,249.635,506.134,241.843z"/>
    </symbol>


        <symbol id="icon-arrow" viewBox="0 0 512 512">
        <path d="M506.134,241.843c-0.006-0.006-0.011-0.013-0.018-0.019l-104.504-104c-7.829-7.791-20.492-7.762-28.285,0.068
			c-7.792,7.829-7.762,20.492,0.067,28.284L443.558,236H20c-11.046,0-20,8.954-20,20c0,11.046,8.954,20,20,20h423.557
			l-70.162,69.824c-7.829,7.792-7.859,20.455-0.067,28.284c7.793,7.831,20.457,7.858,28.285,0.068l104.504-104
			c0.006-0.006,0.011-0.013,0.018-0.019C513.968,262.339,513.943,249.635,506.134,241.843z"/>
    </symbol>

</svg>
