<svg xmlns="http://www.w3.org/2000/svg" xmlns:xlink="http://www.w3.org/1999/xlink" style="display: none;">

    <symbol id="logo" viewBox="0 0 103.73 82.6">
        <path  d="M95.92,0s7.23,18.31,7.76,33.34c.55,15.73-3.52,24.21-8.86,22.58-6.64-2-12.6-9.21-18.54-5.42S65.72,61.06,59.12,60.74c-5.77-.29-12.33-15.19-5.61-31.47,1.05-2.57-13.79,13.58-16.73,15.84C34.59,46.8,22.15,58.26,14.89,62.88S-.68,75.29,2.78,78.89c2.75,2.86,7.1,2.42,16.18-2.64,9.28-5.18,11.88-15.4,11.88-15.4s1.91-10.09-2.05-17.54c-2.45-4.58-8.82-6.18-12.18-7.42-3.51-1.29-12.36-5.28-7-12C19.72,11.31,29.68,10.29,32.38,12.76c1.9,1.75-2.81,4.51-4,4.84s3.6-3.52-.16-3.43c-4,0-7.58,2-10,3.84C15,20.39,7,25.86,11.8,30.26c2.38,2.15,7.06,3.87,13.43,6.82,5.94,2.75,8.89,14.75,8,21.24A28,28,0,0,1,19.18,78.78C11.1,83.09,2.3,84.59.25,78.78c-2-5.61,8.25-13.34,12.11-16.06,4.58-3.25,17.4-13.46,20.57-16.18,8.33-7.14,20.58-21.34,22.12-20,1.36,1.16-2.83,9.68-2.42,16.39S55.19,64,65.72,56c7.23-5.48,10.56-8.91,13.86-9,5.51-.18,10,5.94,15.63,5.83s6.38-9.13,6.6-15.73c.4-12.1-1-14.86-1.65-20.14C99.37,10,95.92,0,95.92,0Z"/>
    </symbol>

</svg>
